# xmcd
#
# Track frame offsets:
#	150
#	2673
#	20797
#	36921
#	53643
#	66043
#	75163
#	88033
#	101951
#	121341
#	136676
#	146748
#
# Disc length: 2102 seconds
#
# Revision: 0
# Processed by: cddbd v1.5.2PL0 Copyright (c) Steve Scherf et al.
# Submitted via: EasyCDDAExtractor 10.2.0.1
#
DISCID=9808340c
DTITLE=10 City Run - Somethin' Else
DYEAR=2006
DGENRE=Country
TTITLE0=Intro
TTITLE1=City Of Angels (Dumb Ol' Country Boy
TTITLE2=Stay All Night
TTITLE3=Carmellita
TTITLE4=El Camino
TTITLE5=Somethin' Else
TTITLE6=Goodnight Moon
TTITLE7=Mama Died
TTITLE8=Memories
TTITLE9=Juan Mendoza
TTITLE10=In It To Win It
TTITLE11=Congratulations
EXTD=
EXTT0=
EXTT1=
EXTT2=
EXTT3=
EXTT4=
EXTT5=
EXTT6=
EXTT7=
EXTT8=
EXTT9=
EXTT10=
EXTT11=
PLAYORDER=
